<svg width="64" height="64" viewBox="0 0 64 64" fill="none" xmlns="http://www.w3.org/2000/svg">
<circle cx="32" cy="33.3817" r="19.5" fill="#CEEFE9" stroke="black"/>
<circle cx="31.8702" cy="33.692" r="13.5" fill="#FBFBFB" stroke="black"/>
<path d="M25.2234 21.795C21.8377 25.2941 18.656 27.708 15.5974 24.7485C12.5387 21.789 14.8464 18.5295 18.2322 15.0303C21.6179 11.5312 24.6724 8.99426 27.8582 12.0768C31.044 15.1594 28.6091 18.2958 25.2234 21.795Z" fill="#FFD1FF"/>
<path fill-rule="evenodd" clip-rule="evenodd" d="M20.0931 25.2294C21.5883 24.6028 23.1667 23.1966 24.8616 21.4449C26.563 19.6865 27.9453 18.0949 28.5368 16.595C28.8267 15.8599 28.9157 15.1718 28.7743 14.5087C28.6329 13.8456 28.2501 13.1566 27.5081 12.4386C26.7661 11.7207 26.0649 11.3609 25.3975 11.2414C24.7301 11.1219 24.0453 11.2335 23.3202 11.5474C21.8406 12.1881 20.2954 13.6221 18.594 15.3804C16.8991 17.1321 15.5456 18.756 14.9686 20.271C14.6849 21.0159 14.5987 21.7109 14.7355 22.3714C14.872 23.0302 15.2403 23.7025 15.9474 24.3867C16.6546 25.0709 17.3386 25.4168 18.0015 25.5315C18.6662 25.6465 19.358 25.5375 20.0931 25.2294ZM15.5974 24.7485C18.656 27.708 21.8377 25.2941 25.2234 21.795C28.6091 18.2958 31.044 15.1594 27.8582 12.0768C24.6724 8.99426 21.6179 11.5312 18.2322 15.0303C14.8464 18.5295 12.5387 21.789 15.5974 24.7485Z" fill="black"/>
<path d="M25.6237 21.4999C25.073 22.0692 24.2011 22.3843 21.1425 19.4248C18.0838 16.4653 17.6739 15.961 18.6325 14.7353C22.0183 11.2362 24.6724 8.99426 27.8582 12.0768C31.044 15.1594 29.0095 18.0008 25.6237 21.4999Z" fill="#8BE8CB"/>
<path fill-rule="evenodd" clip-rule="evenodd" d="M24.974 21.3506C25.0656 21.3226 25.1526 21.2628 25.2619 21.1499C26.9633 19.3915 28.2379 17.8802 28.73 16.4667C28.9697 15.778 29.0167 15.1291 28.8434 14.4892C28.6689 13.8447 28.2584 13.1646 27.5081 12.4386C26.7575 11.7124 26.0736 11.3338 25.4385 11.1909C24.8087 11.0493 24.1787 11.1285 23.5124 11.4034C22.1459 11.967 20.712 13.3112 19.0132 15.0659C18.7977 15.3445 18.7107 15.521 18.6854 15.6595C18.6639 15.7772 18.6763 15.9278 18.8199 16.1832C18.971 16.452 19.2437 16.7942 19.692 17.2711C20.1361 17.7436 20.7266 18.3219 21.4926 19.063C23.0167 20.5378 23.929 21.126 24.4808 21.3074C24.7401 21.3927 24.8877 21.377 24.974 21.3506ZM18.6325 14.7353C17.6739 15.961 18.0838 16.4653 21.1425 19.4248C24.2011 22.3843 25.073 22.0692 25.6237 21.4999C29.0095 18.0008 31.044 15.1594 27.8582 12.0768C24.6724 8.99426 22.0183 11.2362 18.6325 14.7353Z" fill="black"/>
<path d="M38.3002 30.8839C37.7967 31.2776 38.1667 31.7451 38.4146 31.9296C38.0027 32.6185 38.3955 32.9138 38.6434 32.9753C38.6053 33.2008 38.6434 33.6642 39.1011 33.7134C39.5588 33.7626 39.7113 33.2828 39.7304 33.0368C40.2796 32.7907 39.9974 32.1961 39.7876 31.9296C40.0165 31.2407 39.4634 31.1095 39.1583 31.13C39.082 30.8839 38.8036 30.4903 38.3002 30.8839Z" fill="#84E9BE"/>
<path d="M37.1611 28.1168C37.1247 28.7549 37.7201 28.7853 38.0224 28.7207C38.2683 29.4848 38.7493 29.3844 38.9591 29.2387C39.1034 29.4162 39.4768 29.6932 39.8158 29.3818C40.1547 29.0703 39.8948 28.6391 39.7225 28.4625C39.9 27.8874 39.267 27.7072 38.9283 27.689C38.5615 27.0625 38.0981 27.3915 37.9122 27.6343C37.6769 27.5293 37.1974 27.4788 37.1611 28.1168Z" fill="#84E9BE"/>
<path fill-rule="evenodd" clip-rule="evenodd" d="M38.873 30.8766C38.7614 30.8128 38.5987 30.8047 38.3725 30.9843C38.2601 31.0735 38.2011 31.1633 38.175 31.247C38.149 31.3305 38.154 31.414 38.1795 31.4948C38.2315 31.6597 38.3672 31.8073 38.4798 31.8924C38.5037 31.9105 38.5102 31.9461 38.4945 31.9729C38.3055 32.2938 38.3097 32.5073 38.3716 32.6428C38.4354 32.7826 38.5697 32.8607 38.6776 32.8878C38.7057 32.8949 38.7238 32.9249 38.7186 32.956C38.7019 33.0564 38.7025 33.2091 38.7555 33.3395C38.8066 33.4655 38.9077 33.5743 39.1037 33.5957C39.298 33.6169 39.4247 33.5258 39.5077 33.4011C39.5928 33.2733 39.6312 33.1103 39.6396 32.9996C39.6413 32.9776 39.6541 32.9585 39.6728 32.95C39.7937 32.8949 39.8636 32.823 39.9015 32.7465C39.9395 32.6696 39.9484 32.5816 39.9363 32.4884C39.9117 32.2996 39.8023 32.1029 39.7064 31.9791C39.6939 31.963 39.6902 31.9409 39.6967 31.9211C39.7484 31.763 39.7539 31.6431 39.734 31.5528C39.7142 31.4636 39.6684 31.3977 39.6075 31.349C39.4824 31.249 39.2944 31.2223 39.1558 31.2318C39.1313 31.2335 39.1089 31.2169 39.1011 31.1915C39.0675 31.0816 38.9905 30.9437 38.873 30.8766ZM39.1895 31.1121C39.145 30.9923 39.0582 30.849 38.9232 30.7719C38.766 30.682 38.559 30.6901 38.3089 30.8887C38.1832 30.9885 38.1075 31.0967 38.0725 31.209C38.0375 31.3217 38.0454 31.4325 38.0772 31.5333C38.1328 31.7098 38.2627 31.8603 38.3765 31.9562C38.2017 32.2739 38.1935 32.5178 38.2747 32.6955C38.3477 32.8555 38.4867 32.9469 38.6051 32.9885C38.594 33.1018 38.6015 33.252 38.6565 33.3874C38.7226 33.55 38.856 33.6874 39.0929 33.7132C39.3315 33.7393 39.4934 33.6236 39.5953 33.4706C39.6861 33.3342 39.7297 33.1682 39.7441 33.0448C39.8664 32.9829 39.9485 32.9001 39.9967 32.8027C40.0485 32.698 40.0579 32.583 40.0434 32.4718C40.0166 32.2659 39.9067 32.0625 39.8087 31.9289C39.8563 31.7702 39.8638 31.6366 39.8392 31.5251C39.8127 31.4053 39.7503 31.3167 39.6714 31.2537C39.5303 31.1409 39.3363 31.109 39.1895 31.1121Z" fill="black"/>
<path fill-rule="evenodd" clip-rule="evenodd" d="M24.7128 35.354C24.7301 35.4813 24.8227 35.6154 25.1028 35.6856C25.242 35.7205 25.3492 35.7128 25.4315 35.6825C25.5135 35.6523 25.5768 35.5976 25.6254 35.5282C25.7247 35.3866 25.7592 35.1891 25.7582 35.048C25.758 35.0179 25.7823 34.9911 25.8132 34.9873C26.1828 34.942 26.3497 34.8088 26.4196 34.6772C26.4917 34.5416 26.4719 34.3875 26.4278 34.2853C26.4163 34.2587 26.4292 34.226 26.4569 34.2113C26.5468 34.1634 26.6676 34.0701 26.7389 33.9487C26.8077 33.8314 26.8325 33.685 26.7303 33.5165C26.6289 33.3493 26.4795 33.3042 26.33 33.3142C26.1769 33.3244 26.0241 33.3932 25.9311 33.4538C25.9127 33.4659 25.8897 33.4674 25.8716 33.4578C25.7543 33.3953 25.6547 33.3835 25.571 33.4C25.4868 33.4166 25.4116 33.4631 25.345 33.5295C25.2101 33.6639 25.1206 33.8703 25.0807 34.0218C25.0755 34.0415 25.0602 34.0578 25.0405 34.0648C24.8836 34.1199 24.7851 34.1885 24.7256 34.2593C24.6668 34.3293 24.6424 34.4056 24.6408 34.4837C24.6376 34.6438 24.7308 34.8092 24.8227 34.9134C24.8389 34.9319 24.8394 34.9597 24.824 34.9814C24.7572 35.0749 24.6946 35.2199 24.7128 35.354ZM24.7071 34.9595C24.6391 35.0678 24.5783 35.2238 24.5992 35.3779C24.6235 35.5573 24.7559 35.7167 25.0657 35.7943C25.2214 35.8333 25.3533 35.8276 25.4637 35.787C25.5744 35.7462 25.6575 35.6726 25.7182 35.586C25.8244 35.4345 25.8648 35.2398 25.8717 35.0911C26.2302 35.0365 26.4287 34.8946 26.5204 34.722C26.6029 34.5667 26.5909 34.4009 26.5518 34.2816C26.6485 34.2214 26.7631 34.1241 26.8371 33.998C26.9259 33.8467 26.9538 33.6572 26.8301 33.4535C26.7057 33.2483 26.5153 33.1902 26.3319 33.2025C26.1684 33.2134 26.0102 33.2797 25.9035 33.3435C25.78 33.2841 25.6643 33.2693 25.5576 33.2903C25.4431 33.3129 25.346 33.3754 25.2666 33.4545C25.1195 33.6011 25.025 33.8121 24.9786 33.9712C24.8237 34.0299 24.7131 34.1053 24.6396 34.1926C24.5606 34.2866 24.5283 34.39 24.5263 34.4909C24.5226 34.6715 24.6153 34.8449 24.7071 34.9595Z" fill="black"/>
<path fill-rule="evenodd" clip-rule="evenodd" d="M31.8852 40.0522C31.9694 39.9551 32.009 39.7971 31.8768 39.5403C31.8111 39.4127 31.7346 39.3373 31.6575 39.2955C31.5807 39.2538 31.4979 39.2424 31.4136 39.2517C31.2417 39.2706 31.0706 39.375 30.9652 39.4689C30.9428 39.4889 30.9066 39.4883 30.8834 39.4677C30.6053 39.2199 30.3951 39.1825 30.2501 39.2168C30.1007 39.2522 29.998 39.3688 29.9503 39.4693C29.9379 39.4956 29.9049 39.5075 29.8755 39.4964C29.7802 39.4604 29.6304 39.4313 29.4921 39.4579C29.3586 39.4836 29.2322 39.5616 29.1731 39.7497C29.1145 39.9362 29.1792 40.0782 29.2854 40.1838C29.3942 40.2921 29.5466 40.3615 29.6536 40.3913C29.6748 40.3972 29.6911 40.4135 29.6958 40.4334C29.7263 40.5628 29.7832 40.6454 29.8509 40.6974C29.9189 40.7496 30.0035 40.7755 30.0973 40.7817C30.2873 40.7943 30.5015 40.7252 30.6416 40.6552C30.6598 40.6461 30.6822 40.6468 30.7004 40.657C30.8454 40.7385 30.962 40.7672 31.0544 40.7652C31.1458 40.7632 31.2192 40.7311 31.2789 40.6808C31.4013 40.5775 31.464 40.3983 31.4817 40.2605C31.4848 40.2361 31.5054 40.2173 31.5319 40.2147C31.6462 40.2031 31.7964 40.1544 31.8852 40.0522ZM31.5926 40.3169C31.7188 40.2965 31.8761 40.2392 31.9781 40.1218C32.0968 39.9851 32.1291 39.7804 31.983 39.4965C31.9095 39.3538 31.8181 39.2584 31.7147 39.2023C31.611 39.146 31.5008 39.1322 31.3958 39.1438C31.2118 39.1641 31.0389 39.2622 30.9227 39.3552C30.6451 39.122 30.4074 39.0665 30.2173 39.1116C30.0461 39.1521 29.9295 39.2706 29.8657 39.3787C29.7567 39.3457 29.6079 39.3239 29.4644 39.3515C29.2921 39.3847 29.1313 39.4889 29.0599 39.7162C28.9879 39.9452 29.0699 40.1265 29.2002 40.2562C29.3164 40.3718 29.4706 40.4469 29.5889 40.485C29.6258 40.6169 29.6911 40.7136 29.7773 40.7798C29.8699 40.851 29.9809 40.8826 30.0928 40.89C30.3 40.9038 30.5208 40.8355 30.671 40.7653C30.8174 40.8429 30.9469 40.8763 31.0611 40.8738C31.1838 40.8711 31.2828 40.8271 31.36 40.762C31.4981 40.6456 31.5671 40.4615 31.5926 40.3169Z" fill="black"/>
<path fill-rule="evenodd" clip-rule="evenodd" d="M37.5335 27.6815C37.412 27.7233 37.2985 27.8402 37.2842 28.1286C37.2772 28.272 37.3056 28.3756 37.3514 28.4504C37.3969 28.525 37.4629 28.5764 37.5405 28.6106C37.6988 28.6803 37.8992 28.6757 38.0374 28.6472C38.0668 28.6412 38.0979 28.6598 38.1076 28.6893C38.2241 29.043 38.3873 29.1807 38.5299 29.2236C38.677 29.2679 38.8243 29.2185 38.9159 29.1554C38.9399 29.1389 38.9743 29.1451 38.9943 29.1694C39.0587 29.2483 39.1738 29.3486 39.3067 29.3948C39.4352 29.4395 39.5836 29.4353 39.729 29.3021C39.8732 29.1701 39.8883 29.0148 39.8494 28.8701C39.8095 28.7219 39.7123 28.5855 39.6347 28.5061C39.6193 28.4904 39.6133 28.4681 39.6192 28.4485C39.6577 28.3213 39.6498 28.2213 39.6173 28.1424C39.5846 28.0631 39.5243 27.9983 39.4463 27.946C39.2881 27.8398 39.0682 27.7923 38.9119 27.7827C38.8915 27.7814 38.8725 27.7696 38.8619 27.7516C38.7772 27.6085 38.6907 27.5253 38.6097 27.4807C38.5296 27.4366 38.45 27.4276 38.3731 27.4413C38.2154 27.4693 38.0714 27.5929 37.987 27.7034C37.9721 27.7229 37.9449 27.7288 37.9207 27.7179C37.8159 27.6706 37.6615 27.6375 37.5335 27.6815ZM37.9193 27.599C37.7999 27.5535 37.635 27.5242 37.4879 27.5747C37.3167 27.6335 37.1862 27.7944 37.1704 28.1134C37.1625 28.2737 37.1938 28.402 37.2552 28.5024C37.3167 28.603 37.4052 28.6702 37.5019 28.7128C37.6712 28.7875 37.87 28.7891 38.0173 28.7669C38.1407 29.1078 38.3185 29.2749 38.5056 29.3312C38.674 29.3819 38.8344 29.3378 38.9438 29.2762C39.0216 29.3593 39.1394 29.4528 39.2775 29.5008C39.4432 29.5584 39.6345 29.5488 39.8102 29.3878C39.9872 29.2257 40.0071 29.0277 39.9593 28.8502C39.9168 28.692 39.8208 28.5497 39.7375 28.4575C39.7717 28.3248 39.7637 28.2084 39.7223 28.1079C39.6778 27.9999 39.5976 27.9169 39.5045 27.8545C39.332 27.7388 39.1067 27.6872 38.9416 27.6727C38.8538 27.5322 38.7584 27.4384 38.6583 27.3834C38.5508 27.3242 38.443 27.3127 38.3437 27.3303C38.1658 27.3619 38.0138 27.4866 37.9193 27.599Z" fill="black"/>
</svg>
