<svg width="64" height="64" viewBox="0 0 64 64" fill="none" xmlns="http://www.w3.org/2000/svg">
<circle cx="32" cy="33.3817" r="19.5" fill="#CEEFE9" stroke="black"/>
<path d="M26.7001 46.6185C27.3121 47.6533 28.7671 47.4117 29.5001 47.1185L37.5 23.1184L34 20.1185C33.6 18.5185 31.5 19.1185 30.5 19.6184C29.3 18.0184 27.6667 19.2851 27 20.1185C25.8 19.3185 24.5 20.1185 24 20.6185C21.2 20.6185 20.5 22.6185 20.5 23.6185C18.9 23.6185 18.5 25.2851 18.5 26.1185C17.3 26.5185 17.3333 28.6185 17.5 29.6185C15.5 30.4185 16.3334 32.2851 17.0001 33.1185C15.8001 34.3185 16.5001 36.2851 17.0001 37.1185C16.2001 38.7185 17.6668 39.7851 18.5001 40.1185C17.7001 41.7185 19.5001 42.7851 20.5001 43.1185C20.5001 44.7185 22.1668 45.1185 23.0001 45.1185C23.4001 46.7185 25.6334 46.7851 26.7001 46.6185Z" fill="#FDFAFC"/>
<path d="M26.5001 46.1185C26.5483 46.3112 26.6163 46.4768 26.7001 46.6185M26.7001 46.6185C27.3121 47.6533 28.7671 47.4117 29.5001 47.1185L37.5 23.1184L34 20.1185C33.6 18.5185 31.5 19.1185 30.5 19.6184C29.3 18.0184 27.6667 19.2851 27 20.1185C25.8 19.3185 24.5 20.1185 24 20.6185C21.2 20.6185 20.5 22.6185 20.5 23.6185C18.9 23.6185 18.5 25.2851 18.5 26.1185C17.3 26.5185 17.3333 28.6185 17.5 29.6185C15.5 30.4185 16.3334 32.2851 17.0001 33.1185C15.8001 34.3185 16.5001 36.2851 17.0001 37.1185C16.2001 38.7185 17.6668 39.7851 18.5001 40.1185C17.7001 41.7185 19.5001 42.7851 20.5001 43.1185C20.5001 44.7185 22.1668 45.1185 23.0001 45.1185C23.4001 46.7185 25.6334 46.7851 26.7001 46.6185Z" stroke="black" stroke-linecap="round" stroke-linejoin="round"/>
<path d="M27.7957 29.1808L29.2044 29.056" stroke="black" stroke-linecap="round" stroke-linejoin="round"/>
<path d="M26.0242 33.6184L26.9997 34.6424" stroke="black" stroke-linecap="round" stroke-linejoin="round"/>
<path d="M23.0563 40.6731L23.9984 39.6184" stroke="black" stroke-linecap="round" stroke-linejoin="round"/>
<path d="M30.2114 23.8071L30.9774 22.6184" stroke="black" stroke-linecap="round" stroke-linejoin="round"/>
<path d="M22 30.6113L23.1117 29.7372" stroke="black" stroke-linecap="round" stroke-linejoin="round"/>
<path d="M25.0001 24.6285L26.0101 25.6184" stroke="black" stroke-linecap="round" stroke-linejoin="round"/>
<path d="M21 36.0042L22.2622 36.3966" stroke="black" stroke-linecap="round" stroke-linejoin="round"/>
<path d="M29.1405 41.4237L30.4883 40.5079" stroke="black" stroke-linecap="round" stroke-linejoin="round"/>
<path d="M38.7163 19.8426C31.9842 20.4391 32.9996 26.5533 34.3489 29.5359C26.9351 33.2001 29.0583 37.9509 31.0466 39.8683C29.5198 41.6081 27.4674 45.8333 31.4726 48.8159C35.4777 51.7985 39.3905 48.4965 40.8463 46.4726C47.2375 47.4101 47.6992 40.6851 47.1311 37.2054C52.8406 32.5186 48.3739 28.2933 45.4269 26.7665C45.9951 24.21 45.4484 19.2462 38.7163 19.8426Z" fill="#84E9BE"/>
<path fill-rule="evenodd" clip-rule="evenodd" d="M44.3824 22.3828C43.5992 21.0999 41.99 20.0546 38.7604 20.3407C37.1529 20.4831 36.0603 20.9497 35.3273 21.5709C34.5965 22.1902 34.1822 22.9976 33.9912 23.8982C33.6034 25.7273 34.1515 27.8864 34.8044 29.3298C34.9155 29.5754 34.812 29.8647 34.5704 29.9841C30.9532 31.7719 29.799 33.751 29.6704 35.3961C29.5387 37.0811 30.4632 38.6111 31.3937 39.5083C31.5859 39.6937 31.5985 39.9974 31.4224 40.1981C30.704 41.0167 29.8689 42.418 29.6813 43.9373C29.4988 45.4159 29.921 47.0371 31.7712 48.4149C33.609 49.7836 35.3954 49.7093 36.9199 49.0615C38.4741 48.4011 39.7497 47.141 40.4404 46.1806C40.5495 46.029 40.7341 45.9508 40.9189 45.9779C42.4283 46.1993 43.5347 45.9622 44.3496 45.4793C45.1678 44.9944 45.746 44.2297 46.1378 43.3011C46.9297 41.4239 46.9141 38.9795 46.6377 37.286C46.6089 37.11 46.6761 36.9321 46.8139 36.819C48.1904 35.689 48.91 34.6225 49.2108 33.6623C49.5092 32.7102 49.4103 31.817 49.0644 30.9949C48.3583 29.317 46.6238 27.9497 45.1969 27.2104C44.9956 27.1061 44.8896 26.8794 44.9388 26.658C45.2069 25.4518 45.1979 23.7185 44.3824 22.3828ZM45.9876 26.5014C46.2106 25.1691 46.1464 23.3531 45.2359 21.8617C44.2048 20.1726 42.1747 19.0343 38.6722 19.3446C36.9136 19.5004 35.6086 20.0217 34.6808 20.808C33.7508 21.596 33.241 22.6154 33.013 23.6908C32.6037 25.6207 33.0908 27.7709 33.7059 29.3023C30.2197 31.1328 28.8333 33.2731 28.6734 35.3182C28.5269 37.1929 29.4258 38.8399 30.3773 39.8947C29.6456 40.8388 28.8818 42.2521 28.6889 43.8148C28.4648 45.6295 29.019 47.6122 31.1739 49.217C33.3412 50.8309 35.5138 50.7455 37.311 49.9819C38.9474 49.2866 40.2764 48.0325 41.0716 47.0062C42.6196 47.1833 43.8707 46.9255 44.8594 46.3396C45.9075 45.7184 46.6076 44.7602 47.0591 43.6898C47.9077 41.6784 47.9176 39.1838 47.6676 37.4081C49.0125 36.2554 49.8087 35.0988 50.1651 33.9613C50.543 32.7553 50.4115 31.618 49.9861 30.607C49.209 28.7603 47.4518 27.3271 45.9876 26.5014Z" fill="black"/>
<path d="M25.2234 21.795C21.8377 25.2941 18.656 27.708 15.5974 24.7485C12.5387 21.789 14.8464 18.5295 18.2322 15.0303C21.6179 11.5312 24.6724 8.99426 27.8582 12.0768C31.044 15.1594 28.6091 18.2958 25.2234 21.795Z" fill="#FFD1FF"/>
<path fill-rule="evenodd" clip-rule="evenodd" d="M20.0931 25.2294C21.5883 24.6028 23.1667 23.1966 24.8616 21.4449C26.563 19.6865 27.9453 18.0949 28.5368 16.595C28.8267 15.8599 28.9157 15.1718 28.7743 14.5087C28.6329 13.8456 28.2501 13.1566 27.5081 12.4386C26.7661 11.7207 26.0649 11.3609 25.3975 11.2414C24.7301 11.1219 24.0453 11.2335 23.3202 11.5474C21.8406 12.1881 20.2954 13.6221 18.594 15.3804C16.8991 17.1321 15.5456 18.756 14.9686 20.271C14.6849 21.0159 14.5987 21.7109 14.7355 22.3714C14.872 23.0302 15.2403 23.7025 15.9474 24.3867C16.6546 25.0709 17.3386 25.4168 18.0015 25.5315C18.6662 25.6465 19.358 25.5375 20.0931 25.2294ZM15.5974 24.7485C18.656 27.708 21.8377 25.2941 25.2234 21.795C28.6091 18.2958 31.044 15.1594 27.8582 12.0768C24.6724 8.99426 21.6179 11.5312 18.2322 15.0303C14.8464 18.5295 12.5387 21.789 15.5974 24.7485Z" fill="black"/>
<path d="M25.6237 21.4999C25.073 22.0692 24.2011 22.3843 21.1425 19.4248C18.0838 16.4653 17.6739 15.961 18.6325 14.7353C22.0183 11.2362 24.6724 8.99426 27.8582 12.0768C31.044 15.1594 29.0095 18.0008 25.6237 21.4999Z" fill="#8BE8CB"/>
<path fill-rule="evenodd" clip-rule="evenodd" d="M24.974 21.3506C25.0656 21.3226 25.1526 21.2628 25.2619 21.1499C26.9633 19.3915 28.2379 17.8802 28.73 16.4667C28.9697 15.778 29.0167 15.1291 28.8434 14.4892C28.6689 13.8447 28.2584 13.1646 27.5081 12.4386C26.7575 11.7124 26.0736 11.3338 25.4385 11.1909C24.8087 11.0493 24.1787 11.1285 23.5124 11.4034C22.1459 11.967 20.712 13.3112 19.0132 15.0659C18.7977 15.3445 18.7107 15.521 18.6854 15.6595C18.6639 15.7772 18.6763 15.9278 18.8199 16.1832C18.971 16.452 19.2437 16.7942 19.692 17.2711C20.1361 17.7436 20.7266 18.3219 21.4926 19.063C23.0167 20.5378 23.929 21.126 24.4808 21.3074C24.7401 21.3927 24.8877 21.377 24.974 21.3506ZM18.6325 14.7353C17.6739 15.961 18.0838 16.4653 21.1425 19.4248C24.2011 22.3843 25.073 22.0692 25.6237 21.4999C29.0095 18.0008 31.044 15.1594 27.8582 12.0768C24.6724 8.99426 22.0183 11.2362 18.6325 14.7353Z" fill="black"/>
</svg>
