<svg width="48" height="48" viewBox="0 0 48 48" fill="none" xmlns="http://www.w3.org/2000/svg">
<g id="Property 1=capsule">
<g id="capsule">
<g id="Ellipse 1">
<mask id="path-1-inside-1_2201_901" fill="white">
<path d="M32.3915 28.6604C27.7263 37.1322 22.8866 43.4174 15.4812 39.3396C8.07593 35.2617 10.7999 27.8114 15.465 19.3396C20.1301 10.8678 24.662 4.41299 32.3752 8.6604C40.0885 12.9078 37.0566 20.1886 32.3915 28.6604Z"/>
</mask>
<path d="M32.3915 28.6604C27.7263 37.1322 22.8866 43.4174 15.4812 39.3396C8.07593 35.2617 10.7999 27.8114 15.465 19.3396C20.1301 10.8678 24.662 4.41299 32.3752 8.6604C40.0885 12.9078 37.0566 20.1886 32.3915 28.6604Z" fill="#FFD1FF" stroke="black" stroke-width="2" mask="url(#path-1-inside-1_2201_901)"/>
</g>
<g id="Ellipse 2">
<mask id="path-2-inside-2_2201_901" fill="white">
<path d="M33.0047 27.8863C32.2458 29.2645 30.739 30.3231 23.3337 26.2452C15.9284 22.1674 14.8799 21.4145 16.0782 18.5655C20.7434 10.0937 24.662 4.41308 32.3753 8.66049C40.0885 12.9079 37.6698 19.4145 33.0047 27.8863Z"/>
</mask>
<path d="M33.0047 27.8863C32.2458 29.2645 30.739 30.3231 23.3337 26.2452C15.9284 22.1674 14.8799 21.4145 16.0782 18.5655C20.7434 10.0937 24.662 4.41308 32.3753 8.66049C40.0885 12.9079 37.6698 19.4145 33.0047 27.8863Z" fill="#8BE8CB" stroke="black" stroke-width="2" mask="url(#path-2-inside-2_2201_901)"/>
</g>
</g>
</g>
</svg>
