<svg width="48" height="48" viewBox="0 0 48 48" fill="none" xmlns="http://www.w3.org/2000/svg">
<g id="Property 1=cream">
<g id="Group 3">
<path id="Vector 6" d="M19.7894 37.9615V25.9805C19.7894 24.8759 20.6849 23.9805 21.7894 23.9805H25.6842C26.7887 23.9805 27.6842 24.8759 27.6842 25.9805V37.9915C27.6842 38.7574 27.2516 39.4708 26.5392 39.7521C24.5954 40.5197 23.0976 40.5432 20.9712 39.7416C20.24 39.4659 19.7894 38.7429 19.7894 37.9615Z" fill="#FFD1FF" stroke="black" stroke-linejoin="round"/>
<path id="Vector 7" d="M31.6688 7.66467H16.3312C15.1055 7.66467 14.1681 8.75727 14.3545 9.96879L17.9496 33.3372C18.0997 34.3129 18.9392 35.0331 19.9264 35.0331H28.0736C29.0608 35.0331 29.9003 34.3129 30.0504 33.3372L33.6455 9.96879C33.8319 8.75727 32.8945 7.66467 31.6688 7.66467Z" fill="#8BE8CB" stroke="black" stroke-linejoin="round"/>
</g>
</g>
</svg>
