<svg width="24" height="24" viewBox="0 0 24 24" fill="none" xmlns="http://www.w3.org/2000/svg">
<g id="ic_sunrise">
<path id="Vector" d="M11.469 3.22034C11.5387 3.1505 11.6214 3.09508 11.7125 3.05727C11.8037 3.01946 11.9013 3 12 3C12.0987 3 12.1963 3.01946 12.2874 3.05727C12.3786 3.09508 12.4613 3.1505 12.531 3.22034L14.781 5.47034C14.8507 5.54007 14.906 5.62286 14.9438 5.71397C14.9815 5.80507 15.0009 5.90272 15.0009 6.00134C15.0009 6.09996 14.9815 6.19761 14.9438 6.28872C14.906 6.37982 14.8507 6.46261 14.781 6.53234C14.7113 6.60207 14.6285 6.65739 14.5374 6.69513C14.4463 6.73286 14.3486 6.75229 14.25 6.75229C14.1514 6.75229 14.0537 6.73286 13.9626 6.69513C13.8715 6.65739 13.7887 6.60207 13.719 6.53234L12.75 5.56184V8.25134C12.75 8.45025 12.671 8.64102 12.5303 8.78167C12.3897 8.92232 12.1989 9.00134 12 9.00134C11.8011 9.00134 11.6103 8.92232 11.4697 8.78167C11.329 8.64102 11.25 8.45025 11.25 8.25134V5.56184L10.281 6.53234C10.2113 6.60207 10.1285 6.65739 10.0374 6.69513C9.94627 6.73286 9.84862 6.75229 9.75 6.75229C9.65138 6.75229 9.55373 6.73286 9.46262 6.69513C9.37152 6.65739 9.28873 6.60207 9.219 6.53234C9.14927 6.46261 9.09395 6.37982 9.05622 6.28872C9.01848 6.19761 8.99905 6.09996 8.99905 6.00134C8.99905 5.90272 9.01848 5.80507 9.05622 5.71397C9.09395 5.62286 9.14927 5.54007 9.219 5.47034L11.469 3.22034ZM3.5145 8.01584C3.65515 7.87524 3.84588 7.79625 4.04475 7.79625C4.24362 7.79625 4.43435 7.87524 4.575 8.01584L6.696 10.1368C6.83262 10.2783 6.90821 10.4677 6.90651 10.6644C6.9048 10.861 6.82592 11.0491 6.68686 11.1882C6.54781 11.3273 6.3597 11.4061 6.16305 11.4078C5.9664 11.4096 5.77695 11.334 5.6355 11.1973L3.5145 9.07634C3.3739 8.93569 3.29491 8.74496 3.29491 8.54609C3.29491 8.34722 3.3739 8.15649 3.5145 8.01584ZM20.4855 8.01584C20.6261 8.15649 20.7051 8.34722 20.7051 8.54609C20.7051 8.74496 20.6261 8.93569 20.4855 9.07634L18.3645 11.1973C18.2953 11.269 18.2126 11.3261 18.1211 11.3654C18.0296 11.4047 17.9311 11.4254 17.8316 11.4263C17.732 11.4271 17.6332 11.4082 17.541 11.3705C17.4489 11.3327 17.3651 11.2771 17.2947 11.2066C17.2243 11.1362 17.1686 11.0525 17.1309 10.9603C17.0932 10.8681 17.0742 10.7694 17.0751 10.6698C17.0759 10.5702 17.0966 10.4718 17.1359 10.3803C17.1752 10.2888 17.2324 10.206 17.304 10.1368L19.425 8.01584C19.5656 7.87524 19.7564 7.79625 19.9552 7.79625C20.1541 7.79625 20.3449 7.87524 20.4855 8.01584ZM17.5635 18.7513C17.9313 17.8406 18.0698 16.8535 17.967 15.8767C17.8643 14.8999 17.5232 13.9633 16.9739 13.1491C16.4246 12.3349 15.6838 11.6679 14.8166 11.2069C13.9494 10.7458 12.9822 10.5047 12 10.5047C11.0178 10.5047 10.0506 10.7458 9.1834 11.2069C8.31616 11.6679 7.57537 12.3349 7.02607 13.1491C6.47677 13.9633 6.13575 14.8999 6.03295 15.8767C5.93016 16.8535 6.06873 17.8406 6.4365 18.7513H0.75C0.551088 18.7513 0.360322 18.8304 0.21967 18.971C0.0790176 19.1117 0 19.3024 0 19.5013C0 19.7003 0.0790176 19.891 0.21967 20.0317C0.360322 20.1723 0.551088 20.2513 0.75 20.2513H23.25C23.4489 20.2513 23.6397 20.1723 23.7803 20.0317C23.921 19.891 24 19.7003 24 19.5013C24 19.3024 23.921 19.1117 23.7803 18.971C23.6397 18.8304 23.4489 18.7513 23.25 18.7513H17.565H17.5635ZM0 16.5013C0 16.3024 0.0790176 16.1117 0.21967 15.971C0.360322 15.8304 0.551088 15.7513 0.75 15.7513H3.75C3.94891 15.7513 4.13968 15.8304 4.28033 15.971C4.42098 16.1117 4.5 16.3024 4.5 16.5013C4.5 16.7003 4.42098 16.891 4.28033 17.0317C4.13968 17.1723 3.94891 17.2513 3.75 17.2513H0.75C0.551088 17.2513 0.360322 17.1723 0.21967 17.0317C0.0790176 16.891 0 16.7003 0 16.5013ZM19.5 16.5013C19.5 16.3024 19.579 16.1117 19.7197 15.971C19.8603 15.8304 20.0511 15.7513 20.25 15.7513H23.25C23.4489 15.7513 23.6397 15.8304 23.7803 15.971C23.921 16.1117 24 16.3024 24 16.5013C24 16.7003 23.921 16.891 23.7803 17.0317C23.6397 17.1723 23.4489 17.2513 23.25 17.2513H20.25C20.0511 17.2513 19.8603 17.1723 19.7197 17.0317C19.579 16.891 19.5 16.7003 19.5 16.5013Z" fill="#2E2E2E" fill-opacity="0.4"/>
</g>
</svg>
