<svg width="21" height="20" viewBox="0 0 21 20" fill="none" xmlns="http://www.w3.org/2000/svg">
<g id="vuesax/linear/book">
<g id="book">
<path id="Vector" d="M19.1667 13.9501V3.89174C19.1667 2.89174 18.35 2.15008 17.3583 2.23341H17.3083C15.5583 2.38341 12.9 3.27508 11.4167 4.20841L11.275 4.30008C11.0333 4.45008 10.6333 4.45008 10.3917 4.30008L10.1833 4.17508C8.7 3.25008 6.05 2.36674 4.3 2.22508C3.30833 2.14174 2.5 2.89174 2.5 3.88341V13.9501C2.5 14.7501 3.15 15.5001 3.95 15.6001L4.19167 15.6334C6 15.8751 8.79167 16.7917 10.3917 17.6667L10.425 17.6834C10.65 17.8084 11.0083 17.8084 11.225 17.6834C12.825 16.8001 15.625 15.8751 17.4417 15.6334L17.7167 15.6001C18.5167 15.5001 19.1667 14.7501 19.1667 13.9501Z" stroke="#2E2E2E" stroke-linecap="round" stroke-linejoin="round"/>
<path id="Vector_2" d="M10.8334 4.57495V17.075" stroke="#2E2E2E" stroke-linecap="round" stroke-linejoin="round"/>
<path id="Vector_3" d="M7.29175 7.07495H5.41675" stroke="#2E2E2E" stroke-linecap="round" stroke-linejoin="round"/>
<path id="Vector_4" d="M7.91675 9.57495H5.41675" stroke="#2E2E2E" stroke-linecap="round" stroke-linejoin="round"/>
</g>
</g>
</svg>
