<svg width="48" height="48" viewBox="0 0 48 48" fill="none" xmlns="http://www.w3.org/2000/svg">
<g id="Property 1=liquid">
<g id="Group 6">
<path id="Rectangle 5" d="M15.5 23.5H32.5V35C32.5 36.933 30.933 38.5 29 38.5H19C17.067 38.5 15.5 36.933 15.5 35V23.5Z" fill="#8BE8CB" stroke="black"/>
<g id="Rectangle 6">
<mask id="path-2-inside-1_2245_2241" fill="white">
<path d="M15 20.7143C15 18.1107 17.1107 16 19.7143 16V16C20.1482 16 20.5 15.6482 20.5 15.2143V14H27.5V15.2143C27.5 15.6482 27.8518 16 28.2857 16V16C30.8893 16 33 18.1107 33 20.7143V24H15V20.7143Z"/>
</mask>
<path d="M33 24V25H34V24H33ZM15 24H14V25H15V24ZM20.5 14V13H19.5V14H20.5ZM27.5 14H28.5C28.5 13.4477 28.0523 13 27.5 13V14ZM32 20.7143V24H34V20.7143H32ZM33 23H15V25H33V23ZM16 24V20.7143H14V24H16ZM21.5 15.2143V14H19.5V15.2143H21.5ZM20.5 15H27.5V13H20.5V15ZM26.5 14V15.2143H28.5V14H26.5ZM19.7143 17C20.7005 17 21.5 16.2005 21.5 15.2143H19.5C19.5 15.0959 19.5959 15 19.7143 15V17ZM34 20.7143C34 17.5584 31.4416 15 28.2857 15V17C30.3371 17 32 18.6629 32 20.7143H34ZM28.2857 15C28.4041 15 28.5 15.0959 28.5 15.2143H26.5C26.5 16.2005 27.2995 17 28.2857 17V15ZM16 20.7143C16 18.6629 17.6629 17 19.7143 17V15C16.5584 15 14 17.5584 14 20.7143H16Z" fill="black" mask="url(#path-2-inside-1_2245_2241)"/>
</g>
<rect id="Rectangle 7" x="18.5" y="9.5" width="11" height="5" rx="1.5" fill="#FFD1FF" stroke="black"/>
</g>
</g>
</svg>
