<svg width="64" height="64" viewBox="0 0 64 64" fill="none" xmlns="http://www.w3.org/2000/svg">
<circle cx="32" cy="33.3817" r="19.5" fill="#CEEFE9" stroke="black"/>
<path d="M25.2234 21.795C21.8377 25.2941 18.656 27.708 15.5974 24.7485C12.5387 21.789 14.8464 18.5295 18.2322 15.0303C21.6179 11.5312 24.6724 8.99426 27.8582 12.0768C31.044 15.1594 28.6091 18.2958 25.2234 21.795Z" fill="#FFD1FF"/>
<path fill-rule="evenodd" clip-rule="evenodd" d="M20.0931 25.2294C21.5883 24.6028 23.1667 23.1966 24.8616 21.4449C26.563 19.6865 27.9453 18.0949 28.5368 16.595C28.8267 15.8599 28.9157 15.1718 28.7743 14.5087C28.6329 13.8456 28.2501 13.1566 27.5081 12.4386C26.7661 11.7207 26.0649 11.3609 25.3975 11.2414C24.7301 11.1219 24.0453 11.2335 23.3202 11.5474C21.8406 12.1881 20.2954 13.6221 18.594 15.3804C16.8991 17.1321 15.5456 18.756 14.9686 20.271C14.6849 21.0159 14.5987 21.7109 14.7355 22.3714C14.872 23.0302 15.2403 23.7025 15.9474 24.3867C16.6546 25.0709 17.3386 25.4168 18.0015 25.5315C18.6662 25.6465 19.358 25.5375 20.0931 25.2294ZM15.5974 24.7485C18.656 27.708 21.8377 25.2941 25.2234 21.795C28.6091 18.2958 31.044 15.1594 27.8582 12.0768C24.6724 8.99426 21.6179 11.5312 18.2322 15.0303C14.8464 18.5295 12.5387 21.789 15.5974 24.7485Z" fill="black"/>
<path d="M25.6237 21.4999C25.073 22.0692 24.2011 22.3843 21.1425 19.4248C18.0838 16.4653 17.6739 15.961 18.6325 14.7353C22.0183 11.2362 24.6724 8.99426 27.8582 12.0768C31.044 15.1594 29.0095 18.0008 25.6237 21.4999Z" fill="#8BE8CB"/>
<path fill-rule="evenodd" clip-rule="evenodd" d="M24.974 21.3506C25.0656 21.3226 25.1526 21.2628 25.2619 21.1499C26.9633 19.3915 28.2379 17.8802 28.73 16.4667C28.9697 15.778 29.0167 15.1291 28.8434 14.4892C28.6689 13.8447 28.2584 13.1646 27.5081 12.4386C26.7575 11.7124 26.0736 11.3338 25.4385 11.1909C24.8087 11.0493 24.1787 11.1285 23.5124 11.4034C22.1459 11.967 20.712 13.3112 19.0132 15.0659C18.7977 15.3445 18.7107 15.521 18.6854 15.6595C18.6639 15.7772 18.6763 15.9278 18.8199 16.1832C18.971 16.452 19.2437 16.7942 19.692 17.2711C20.1361 17.7436 20.7266 18.3219 21.4926 19.063C23.0167 20.5378 23.929 21.126 24.4808 21.3074C24.7401 21.3927 24.8877 21.377 24.974 21.3506ZM18.6325 14.7353C17.6739 15.961 18.0838 16.4653 21.1425 19.4248C24.2011 22.3843 25.073 22.0692 25.6237 21.4999C29.0095 18.0008 31.044 15.1594 27.8582 12.0768C24.6724 8.99426 22.0183 11.2362 18.6325 14.7353Z" fill="black"/>
<path d="M22 32.692L29.5 40.192L42 27.692" stroke="black" stroke-linecap="round" stroke-linejoin="round"/>
</svg>
