<svg width="21" height="20" viewBox="0 0 21 20" fill="none" xmlns="http://www.w3.org/2000/svg">
<g id="vuesax/linear/strongbox">
<path id="Vector" d="M7.99996 18.3334H13C17.1666 18.3334 18.8333 16.6667 18.8333 12.5001V7.50008C18.8333 3.33341 17.1666 1.66675 13 1.66675H7.99996C3.83329 1.66675 2.16663 3.33341 2.16663 7.50008V12.5001C2.16663 16.6667 3.83329 18.3334 7.99996 18.3334Z" stroke="#2E2E2E" stroke-linecap="round" stroke-linejoin="round"/>
<path id="Vector_2" d="M12.4593 9.09177C12.3759 9.68344 12.0259 10.1834 11.5426 10.4834V12.1334C11.5426 12.7084 11.0759 13.1751 10.5009 13.1751C9.92592 13.1751 9.45925 12.7084 9.45925 12.1334V10.4834C8.97592 10.1834 8.62591 9.68344 8.54258 9.09177C8.52591 9.0001 8.51758 8.9001 8.51758 8.8001C8.51758 7.53343 9.71759 6.5501 11.0343 6.9001C11.7009 7.0751 12.2426 7.61677 12.4176 8.28344C12.4926 8.55844 12.5009 8.83344 12.4593 9.09177Z" stroke="#2E2E2E" stroke-miterlimit="10"/>
<path id="Vector_3" d="M18.8346 9.0918H12.4596" stroke="#2E2E2E" stroke-miterlimit="10"/>
<path id="Vector_4" d="M8.54162 9.09155H2.16663" stroke="#2E2E2E" stroke-miterlimit="10"/>
</g>
</svg>
