<svg width="48" height="48" viewBox="0 0 48 48" fill="none" xmlns="http://www.w3.org/2000/svg">
<g id="Property 1=pill">
<g id="pill">
<path id="Ellipse 7" d="M36.9605 26.4C36.9605 33.12 29.3506 36 22.3577 36C16.7561 36 10.4488 32.64 10.996 26.4C11.2486 23.52 11.3708 20.052 12.4364 18.72C14.3564 16.32 19.9046 17.76 23.8186 17.76C27.7586 17.76 33.6782 18.2865 36.0005 20.16C37.4405 21.12 36.9605 24.0001 36.9605 26.4Z" fill="#05D1A1"/>
<path id="Ellipse 7 (Stroke)" fill-rule="evenodd" clip-rule="evenodd" d="M35.4317 20.9346L35.3977 20.9072C34.4495 20.1422 32.6148 19.5692 30.363 19.2051C28.1646 18.8497 25.7533 18.72 23.8186 18.72C22.7912 18.72 21.6695 18.6258 20.5742 18.5287C20.492 18.5214 20.4099 18.5141 20.328 18.5069C19.3021 18.4156 18.2997 18.3264 17.3526 18.2996C16.3265 18.2705 15.4278 18.3175 14.6966 18.4914C13.9702 18.6642 13.4873 18.9432 13.1861 19.3197C13.0307 19.5139 12.8671 19.8458 12.7177 20.3498C12.5715 20.8432 12.4564 21.4395 12.362 22.1128C12.2246 23.0932 12.14 24.1611 12.0548 25.2353C12.0218 25.6521 11.9887 26.0699 11.9524 26.4839C11.7133 29.2103 12.9489 31.3063 14.9388 32.7659C16.9576 34.2467 19.7275 35.04 22.3577 35.04C25.744 35.04 29.2193 34.3393 31.8112 32.8831C34.375 31.4426 36.0005 29.3211 36.0005 26.4C36.0005 25.8996 36.0207 25.3767 36.0399 24.8758C36.0447 24.7533 36.0493 24.6321 36.0536 24.5129C36.0761 23.8919 36.0894 23.3141 36.0618 22.7905C36.0023 21.6593 35.764 21.1561 35.468 20.9588L35.4317 20.9346ZM36.0005 20.16C33.6782 18.2865 27.7586 17.76 23.8186 17.76C22.7656 17.76 21.5943 17.6557 20.4071 17.5501C17.1818 17.2631 13.8398 16.9657 12.4364 18.72C11.517 19.8693 11.2999 22.6086 11.0954 25.1884C11.0629 25.5987 11.0307 26.0049 10.996 26.4C10.4488 32.64 16.7561 36 22.3577 36C29.3506 36 36.9605 33.12 36.9605 26.4C36.9605 25.92 36.9797 25.4209 36.9989 24.9217C37.0757 22.9249 37.1525 20.928 36.0005 20.16Z" fill="black"/>
<path id="Ellipse 6" d="M36.9605 20.64C36.9605 27.36 29.933 30.24 23.0405 30.24C16.148 30.24 10.5605 27.36 11.5204 20.64C12.9605 15.36 17.588 12 24.4805 12C31.373 12 36.9605 15.3381 36.9605 20.64Z" fill="#8BE8CB"/>
<path id="Ellipse 6 (Stroke)" fill-rule="evenodd" clip-rule="evenodd" d="M32.0938 27.1353C34.4823 25.7123 36.0005 23.5967 36.0005 20.64C36.0005 18.3738 34.822 16.4892 32.7747 15.1319C30.7089 13.7623 27.7855 12.96 24.4805 12.96C17.9581 12.96 13.7846 16.0851 12.4625 20.8349C12.052 23.8279 13.0756 25.8524 14.9016 27.1845C16.8107 28.5772 19.6987 29.28 23.0405 29.28C26.3742 29.28 29.6685 28.5803 32.0938 27.1353ZM11.5204 20.64C10.5605 27.36 16.148 30.24 23.0405 30.24C29.933 30.24 36.9605 27.36 36.9605 20.64C36.9605 15.3381 31.373 12 24.4805 12C17.588 12 12.9605 15.36 11.5204 20.64Z" fill="black"/>
<path id="Vector 1 (Stroke)" fill-rule="evenodd" clip-rule="evenodd" d="M24.4851 29.826L22.0851 12.546L23.036 12.4139L25.436 29.694L24.4851 29.826Z" fill="black"/>
</g>
</g>
</svg>
