<svg width="64" height="64" viewBox="0 0 64 64" fill="none" xmlns="http://www.w3.org/2000/svg">
<circle cx="32" cy="33.3817" r="19.5" fill="#CEEFE9" stroke="black"/>
<path d="M25.2234 21.795C21.8377 25.2941 18.656 27.708 15.5974 24.7485C12.5387 21.789 14.8464 18.5295 18.2322 15.0303C21.6179 11.5312 24.6724 8.99426 27.8582 12.0768C31.044 15.1594 28.6091 18.2958 25.2234 21.795Z" fill="#FFD1FF"/>
<path fill-rule="evenodd" clip-rule="evenodd" d="M20.0931 25.2294C21.5883 24.6028 23.1667 23.1966 24.8616 21.4449C26.563 19.6865 27.9453 18.0949 28.5368 16.595C28.8267 15.8599 28.9157 15.1718 28.7743 14.5087C28.6329 13.8456 28.2501 13.1566 27.5081 12.4386C26.7661 11.7207 26.0649 11.3609 25.3975 11.2414C24.7301 11.1219 24.0453 11.2335 23.3202 11.5474C21.8406 12.1881 20.2954 13.6221 18.594 15.3804C16.8991 17.1321 15.5456 18.756 14.9686 20.271C14.6849 21.0159 14.5987 21.7109 14.7355 22.3714C14.872 23.0302 15.2403 23.7025 15.9474 24.3867C16.6546 25.0709 17.3386 25.4168 18.0015 25.5315C18.6662 25.6465 19.358 25.5375 20.0931 25.2294ZM15.5974 24.7485C18.656 27.708 21.8377 25.2941 25.2234 21.795C28.6091 18.2958 31.044 15.1594 27.8582 12.0768C24.6724 8.99426 21.6179 11.5312 18.2322 15.0303C14.8464 18.5295 12.5387 21.789 15.5974 24.7485Z" fill="black"/>
<path d="M25.6237 21.4999C25.073 22.0692 24.2011 22.3843 21.1425 19.4248C18.0838 16.4653 17.6739 15.961 18.6325 14.7353C22.0183 11.2362 24.6724 8.99426 27.8582 12.0768C31.044 15.1594 29.0095 18.0008 25.6237 21.4999Z" fill="#8BE8CB"/>
<path fill-rule="evenodd" clip-rule="evenodd" d="M24.974 21.3506C25.0656 21.3226 25.1526 21.2628 25.2619 21.1499C26.9633 19.3915 28.2379 17.8802 28.73 16.4667C28.9697 15.778 29.0167 15.1291 28.8434 14.4892C28.6689 13.8447 28.2584 13.1646 27.5081 12.4386C26.7575 11.7124 26.0736 11.3338 25.4385 11.1909C24.8087 11.0493 24.1787 11.1285 23.5124 11.4034C22.1459 11.967 20.712 13.3112 19.0132 15.0659C18.7977 15.3445 18.7107 15.521 18.6854 15.6595C18.6639 15.7772 18.6763 15.9278 18.8199 16.1832C18.971 16.452 19.2437 16.7942 19.692 17.2711C20.1361 17.7436 20.7266 18.3219 21.4926 19.063C23.0167 20.5378 23.929 21.126 24.4808 21.3074C24.7401 21.3927 24.8877 21.377 24.974 21.3506ZM18.6325 14.7353C17.6739 15.961 18.0838 16.4653 21.1425 19.4248C24.2011 22.3843 25.073 22.0692 25.6237 21.4999C29.0095 18.0008 31.044 15.1594 27.8582 12.0768C24.6724 8.99426 22.0183 11.2362 18.6325 14.7353Z" fill="black"/>
<path d="M23.4911 30.7394C23.8397 28.102 25.67 27.7173 26.5415 27.8547C26.8902 27.1954 28.8656 27.7174 29.5919 27.8547L32.2065 26.6184L37 41.454L34.8211 42.6903C34.4725 44.3387 32.9328 44.4761 32.2065 44.3387C30.812 44.998 29.3014 44.3387 28.7203 43.9266C26.9773 44.9156 25.6699 43.7892 25.2342 43.1024C23.4911 43.7617 22.4743 42.2782 22.1838 41.454C20.0921 41.454 20.1502 39.8056 20.4407 38.9814C17.8261 36.9209 19.5692 36.0967 19.5692 36.0967C18.021 35.1234 20.1303 32.4541 20.8765 32.7999C20.5798 32.1218 22.344 29.9669 23.4911 30.7394Z" fill="#FBFAFA" stroke="black" stroke-linejoin="round"/>
<path d="M26.6819 32.1274L28.6819 31.6274" stroke="black" stroke-linecap="round" stroke-linejoin="round"/>
<path d="M23.6819 37.0133L25.5432 37.8995" stroke="black" stroke-linecap="round" stroke-linejoin="round"/>
<path d="M29.8224 40.6694L31.1701 39.7537" stroke="black" stroke-linecap="round" stroke-linejoin="round"/>
<path d="M31.7542 23.7318C28.2301 26.3562 30.8198 29.4728 32.5552 30.703C29.6718 35.2958 32.4217 37.2641 34.157 37.6741C33.89 39.1777 34.157 42.2669 37.3608 42.595C40.5645 42.923 41.6324 39.7245 41.7659 38.0842C45.6104 36.4439 43.6348 32.4799 42.1664 30.703C43.7683 26.1102 39.8971 25.2354 37.7612 25.3721C37.2273 23.7318 35.2784 21.1073 31.7542 23.7318Z" fill="#84E9BE" stroke="black" stroke-linejoin="round"/>
</svg>
